<svg xmlns="http://www.w3.org/2000/svg" viewBox="0 0 240 96" width="100%" height="100%">
  <defs>
    <linearGradient id="beer1d" x1="0" y1="0" x2="0" y2="1">
      <stop offset="0%" stop-color="#F0A500" stop-opacity="0.9" />
      <stop offset="100%" stop-color="#D47200" stop-opacity="0.95" />
    </linearGradient>
  </defs>
  <g transform="translate(10,5)">
    <path d="M10,46 L10,60 Q10,76 24,76 L40,76 Q54,76 54,62 L54,46 Z" fill="url(#beer1d)" />
    <circle cx="14" cy="44" r="6" fill="#4A4030" />
    <circle cx="26" cy="42" r="8" fill="#4A4030" />
    <circle cx="38" cy="44" r="6.5" fill="#4A4030" />
    <circle cx="48" cy="44" r="5.5" fill="#4A4030" />
    <circle cx="20" cy="39" r="4.5" fill="#4A4030" />
    <circle cx="32" cy="38" r="5" fill="#4A4030" />
    <circle cx="20" cy="64" r="2.5" fill="white" opacity="0.55" />
    <circle cx="34" cy="60" r="1.8" fill="white" opacity="0.45" />
    <circle cx="46" cy="58" r="1.5" fill="white" opacity="0.4" />
    <path d="M56,18 Q56,4 38,4 L24,4 Q4,4 4,24 L4,60 Q4,82 24,82 L40,82 Q60,82 60,62 L60,46 L36,46"
      fill="none" stroke="#F2EDE4" stroke-width="8" stroke-linecap="round" stroke-linejoin="round" />
    <circle cx="48" cy="8" r="5" fill="#E8920A" opacity="0.6" />
    <circle cx="58" cy="3" r="3.5" fill="#F0A500" opacity="0.5" />
    <circle cx="42" cy="1" r="2.5" fill="#E8920A" opacity="0.35" />
  </g>
  <text x="82" y="81" font-family="'Bricolage Grotesque', Georgia, serif" font-size="74" font-weight="800" fill="#F2EDE4" letter-spacing="-3">lupp</text>
</svg>
